<svg xmlns="http://www.w3.org/2000/svg" viewBox="0 0 377.79 117.37"><defs><style>.cls-1{fill:#fff;fill-rule:evenodd;}</style></defs><g id="Layer_2" data-name="Layer 2"><g id="Layer_1-2" data-name="Layer 1"><path class="cls-1" d="M29.28,117.37h8.79V70.42H29.28Zm32.22-.7h7.87V87l33.13,30.33V71.13H94.65v29.11L61.5,70.42Zm59-11.37a24.22,24.22,0,0,0,14.94,5.26c5.37,0,9.14-1.85,9.14-5.93,0-3.56-2.41-4.95-6.61-6.51l-6.82-2.36c-6.27-2.23-11.05-5.49-11.05-13,0-8,7.23-12.36,15.87-12.36a26.24,26.24,0,0,1,13.9,3.69v7.94a22.32,22.32,0,0,0-13.73-4.89c-4.74,0-8.29,1.77-8.29,5.46,0,3.34,2.23,4.68,6.15,6l7.59,2.66c7.35,2.59,10.72,6.6,10.72,13.19,0,8.3-7.29,12.88-16.87,12.88-6.3,0-11.65-1.76-14.94-4Zm52.32,12.07h8.78V70.42h-8.78Zm50-7.1c9.91,0,15.2-6.36,15.2-16.38s-5.3-16.44-15.2-16.44H213v32.82ZM205,70.42h18.09C237,70.42,246,79.59,246,93.89s-9,23.48-22.92,23.48H205Zm84.94,0v7H268.67v11.3h19.07v7H268.66v14.57h21.27v7.1H260.64V70.42Zm31.18,21.26h8.72c5.16,0,8.07-2.83,8.07-7.18s-2.91-7.19-8.07-7.19h-8.72V91.68Zm0,6.64v19.05h-7.75V70.42H330c9.48,0,15.61,4.88,15.61,14.08,0,7.86-3.4,12.37-10.66,13.53l16.5,19.34H342.6l-16-19.05h-5.52ZM26.21,24.17c3.44-1.26,6.12-5,6.12-10.22C32.33,5.3,26.21.82,16.43.82H0V49.1H18c9.78,0,15.89-4.8,15.89-13.84A11.67,11.67,0,0,0,26.21,24.17ZM7.72,21.1V7.9h8.64c5.43,0,8.33,2,8.33,6.52s-2.91,6.68-8.33,6.68Zm0,6.77H17.8c5.36,0,8.26,2.67,8.26,7.07S23.15,42,17.81,42H7.72V27.86Zm62,22c11.23,0,18.8-6.76,18.8-20V.82h-8V29c0,9.28-3.82,13.61-10.85,13.61S58.86,38.24,58.86,29V.82h-8v29C50.91,43.12,58.55,49.88,69.71,49.88Zm37.51-4.24c3.29,2.36,8.64,4.24,14.9,4.24,9.56,0,16.82-4.88,16.82-13.68,0-7-3.36-11.24-10.7-14l-7.57-2.83c-3.89-1.41-6.11-2.82-6.11-6.36,0-3.94,3.51-5.82,8.25-5.82,5.5,0,9.79,2.12,13.68,5.19V4A24.82,24.82,0,0,0,122.66,0C114,0,106.84,4.67,106.84,13.16c0,7.94,4.74,11.4,11,13.76l6.81,2.52c4.2,1.65,6.57,3.14,6.57,6.92,0,4.32-3.74,6.29-9.1,6.29a23.3,23.3,0,0,1-14.9-5.58ZM167.34.82h-8V49.09h8ZM190,49h7.66V17.63L229.9,49.78V.74h-7.63V31.62L190,0ZM279.57.83V8.06H258.93V19.68h18.51v7.15H258.93v15h20.64v7.31H251.14V.83Zm18.5,44.77A26.24,26.24,0,0,0,313,49.85c9.56,0,16.82-4.88,16.82-13.68,0-7-3.37-11.24-10.7-14l-7.57-2.83c-3.9-1.41-6.11-2.83-6.11-6.37,0-3.93,3.51-5.81,8.25-5.81,5.5,0,9.78,2.12,13.68,5.19V3.93A24.82,24.82,0,0,0,313.51,0c-8.64,0-15.82,4.64-15.82,13.13,0,7.94,4.74,11.4,11,13.76l6.8,2.51c4.21,1.66,6.58,3.15,6.58,6.93,0,4.32-3.74,6.29-9.1,6.29A23.26,23.26,0,0,1,298.07,37Zm48,0A26.24,26.24,0,0,0,361,49.85c9.56,0,16.82-4.88,16.82-13.68,0-7-3.37-11.24-10.7-14l-7.57-2.83c-3.9-1.41-6.11-2.83-6.11-6.37,0-3.93,3.51-5.81,8.25-5.81,5.5,0,9.78,2.12,13.68,5.19V3.93A24.82,24.82,0,0,0,361.51,0c-8.64,0-15.82,4.64-15.82,13.13,0,7.94,4.74,11.4,11,13.76l6.81,2.51c4.2,1.66,6.57,3.15,6.57,6.93,0,4.32-3.75,6.29-9.1,6.29A23.26,23.26,0,0,1,346.07,37Z"></path></g></g></svg>