<svg xmlns="http://www.w3.org/2000/svg" viewBox="0 0 251 85.31"><defs><style>.cls-1{fill:#876aaf;}.cls-2{fill:#cd8091;}</style></defs><g id="Layer_2" data-name="Layer 2"><g id="Layer_1-2" data-name="Layer 1"><polygon class="cls-1" points="198.84 54.49 220 0.12 192.88 0.12 159.44 84.74 233.22 84.74 233.22 54.49 198.84 54.49"></polygon><polygon class="cls-1" points="101.05 63.29 101.05 84.54 148.62 84.54 157.62 63.29 101.05 63.29"></polygon><path class="cls-1" d="M138.31,36.85c-2.06.72-5.65,1.07-10.78,1.07a28.65,28.65,0,0,0-18.1,6.62Q101,51.17,101.05,59h26.69q26,0,35.35-7.8,7.14-6.09,7.15-20.5,0-14.73-7.15-21.35Q153.48.45,127.74.44H101.05V21.9h26.69A40.2,40.2,0,0,1,138.53,23a6.66,6.66,0,0,1,4.7,6.84Q143.23,35.25,138.31,36.85Z"></path><polygon class="cls-1" points="0 0 0 85.31 28.66 85.31 28.66 52.87 47.76 67.09 66.87 52.87 66.87 85.31 95.52 85.31 95.52 0 47.76 35.55 0 0"></polygon><rect class="cls-2" x="238" y="71.74" width="13" height="13" rx="1.58"></rect></g></g></svg>