<svg xmlns="http://www.w3.org/2000/svg" viewBox="0 0 933.33 166.93"><defs><style>.cls-1{fill:#fff;}</style></defs><g id="Layer_2" data-name="Layer 2"><g id="Layer_1-2" data-name="Layer 1"><path class="cls-1" d="M128.42,0V141.72H93.69V53.86L71.82,89.43H88v32.24H50.93L39.58,140.54H0L94.78,0h33.64"></path><path class="cls-1" d="M133.94,28.31l-.17,138.62h34.74V58.37h13.2s16.2-.33,16.2,16.55-14.53,16-14.53,16H174v30.73h21.88s38.91,2,37.24-47.77c-1.6-47.41-53.28-45.6-53.28-45.6H133.94"></path><path class="cls-1" d="M889.78,107.44l12.37-1.88a9.1,9.1,0,0,0,3.21,5.47,10.85,10.85,0,0,0,6.76,1.87c3.2,0,5.59-.58,7.2-1.77a3.89,3.89,0,0,0,1.63-3.28,3.3,3.3,0,0,0-.88-2.34,10,10,0,0,0-4.13-1.62q-14.93-3.28-18.93-6a12,12,0,0,1-5.53-10.51,12.87,12.87,0,0,1,4.79-10.17q4.79-4.14,14.83-4.14c6.39,0,11.14,1,14.25,3.12a15.86,15.86,0,0,1,6.39,9.23l-11.63,2.14a7.13,7.13,0,0,0-2.83-4.16,10.24,10.24,0,0,0-5.95-1.46c-3.25,0-5.58.45-7,1.37A2.92,2.92,0,0,0,903,85.8,2.72,2.72,0,0,0,904.18,88c1.11.82,4.94,2,11.52,3.47s11.16,3.32,13.76,5.49a11.41,11.41,0,0,1,3.87,9.17,14.08,14.08,0,0,1-5.36,11c-3.57,3.08-8.85,4.6-15.85,4.6q-9.52,0-15.09-3.86a17.72,17.72,0,0,1-7.25-10.5M319.87,120.75H305.72l-5.63-14.62H274.36l-5.31,14.62H255.26l25.08-64.37h13.74l25.79,64.37ZM295.93,95.29,287.05,71.4l-8.69,23.89Zm21.91,12.15,12.37-1.88a9.1,9.1,0,0,0,3.21,5.47,10.86,10.86,0,0,0,6.77,1.87c3.19,0,5.59-.58,7.19-1.77a3.89,3.89,0,0,0,1.63-3.28,3.3,3.3,0,0,0-.88-2.34,10,10,0,0,0-4.13-1.62q-14.92-3.28-18.93-6a12,12,0,0,1-5.53-10.51,12.87,12.87,0,0,1,4.79-10.17q4.79-4.14,14.83-4.14c6.39,0,11.14,1,14.25,3.12a15.86,15.86,0,0,1,6.39,9.23l-11.63,2.14a7.13,7.13,0,0,0-2.83-4.16,10.24,10.24,0,0,0-5.95-1.46c-3.25,0-5.58.45-7,1.37A2.92,2.92,0,0,0,331,85.8,2.72,2.72,0,0,0,332.24,88q1.67,1.23,11.53,3.47T357.53,97q3.87,3.3,3.86,9.17a14.08,14.08,0,0,1-5.36,11c-3.57,3.08-8.84,4.6-15.84,4.6-6.36,0-11.38-1.29-15.1-3.86a17.72,17.72,0,0,1-7.25-10.5Zm45.53,0,12.38-1.88A9,9,0,0,0,379,111a10.86,10.86,0,0,0,6.77,1.87c3.19,0,5.59-.58,7.19-1.77a3.87,3.87,0,0,0,1.63-3.28,3.3,3.3,0,0,0-.88-2.34,10,10,0,0,0-4.12-1.62q-14.93-3.28-18.93-6a12,12,0,0,1-5.53-10.51,12.86,12.86,0,0,1,4.78-10.17q4.78-4.14,14.84-4.14c6.38,0,11.13,1,14.24,3.12a15.92,15.92,0,0,1,6.4,9.23L393.7,87.55a7.08,7.08,0,0,0-2.83-4.16,10.24,10.24,0,0,0-5.95-1.46c-3.25,0-5.57.45-7,1.37a2.93,2.93,0,0,0-1.4,2.5A2.72,2.72,0,0,0,377.77,88q1.67,1.23,11.53,3.47T403.06,97a11.41,11.41,0,0,1,3.87,9.17,14.09,14.09,0,0,1-5.37,11c-3.57,3.08-8.84,4.6-15.84,4.6-6.36,0-11.38-1.29-15.1-3.86a17.72,17.72,0,0,1-7.25-10.5Zm47-10.67a25.38,25.38,0,0,1,3-11.9A20.83,20.83,0,0,1,422,76.1a25.48,25.48,0,0,1,12.41-3q10.56,0,17.34,6.88t6.76,17.37q0,10.57-6.82,17.54a23,23,0,0,1-17.19,7,27.06,27.06,0,0,1-12.23-2.89,19.91,19.91,0,0,1-8.86-8.5,28.4,28.4,0,0,1-3-13.64Zm12.65.66c0,4.64,1.1,8.17,3.3,10.63a10.76,10.76,0,0,0,16.22,0q3.29-3.69,3.28-10.72c0-4.55-1.09-8.08-3.28-10.53a10.76,10.76,0,0,0-16.22,0C424.13,89.26,423,92.82,423,97.43Zm81.33-9.52L492.19,90.1a8.8,8.8,0,0,0-2.79-5.48,8.44,8.44,0,0,0-5.64-1.85A9.26,9.26,0,0,0,476.4,86q-2.75,3.19-2.74,10.66,0,8.3,2.79,11.72a9.14,9.14,0,0,0,7.48,3.42,8.25,8.25,0,0,0,5.75-2c1.5-1.33,2.55-3.62,3.17-6.86l12.12,2c-1.26,5.56-3.69,9.77-7.25,12.61s-8.35,4.25-14.36,4.25q-10.23,0-16.31-6.44T461,97.48q0-11.53,6.1-18t16.52-6.44q8.54,0,13.55,3.67c3.34,2.44,5.76,6.18,7.23,11.18Zm4.86-20.11V56.38h12.34V67.8Zm0,53V74.12h12.34v46.63Zm29.72-32.4-11.2-2q1.89-6.76,6.49-10t13.7-3.26c5.52,0,9.61.66,12.31,2a12.29,12.29,0,0,1,5.68,5q1.65,3,1.65,11l-.13,14.41a48.44,48.44,0,0,0,.6,9.06,25.79,25.79,0,0,0,2.22,6.25H558c-.32-.82-.72-2-1.19-3.64-.19-.73-.34-1.21-.43-1.45a22.7,22.7,0,0,1-6.76,4.62A19.44,19.44,0,0,1,542,121.8q-7.2,0-11.35-3.89a13,13,0,0,1-4.15-9.9,13.28,13.28,0,0,1,1.89-7,12.28,12.28,0,0,1,5.29-4.73,41.64,41.64,0,0,1,9.82-2.89,67,67,0,0,0,12-3V89.1c0-2.38-.59-4.06-1.76-5.08s-3.37-1.52-6.63-1.52a8.8,8.8,0,0,0-5.14,1.31,8.91,8.91,0,0,0-3,4.54Zm16.51,10c-1.58.53-4.08,1.15-7.52,1.89s-5.65,1.45-6.71,2.15a5.17,5.17,0,0,0-2.41,4.34,6,6,0,0,0,1.93,4.48,6.73,6.73,0,0,0,4.92,1.89,10.72,10.72,0,0,0,6.37-2.19,7.66,7.66,0,0,0,2.94-4.09,24.47,24.47,0,0,0,.48-6Zm41.18-24.24V84H588.2v18.79a47.14,47.14,0,0,0,.24,6.66,2.79,2.79,0,0,0,1.1,1.56,3.55,3.55,0,0,0,2.08.61,16.28,16.28,0,0,0,5-1.18l1,9.56a24.58,24.58,0,0,1-9.76,1.84,15.55,15.55,0,0,1-6-1.11,8.84,8.84,0,0,1-3.93-2.9,11.5,11.5,0,0,1-1.74-4.81,62.26,62.26,0,0,1-.39-8.7V84h-5.66V74.12h5.66V64.84l12.38-7.19V74.12Zm31.08,31.8L640,108a20.2,20.2,0,0,1-7.5,10.3q-5.1,3.54-12.8,3.53c-8.11,0-14.1-2.63-18-7.94-3.07-4.24-4.62-9.61-4.62-16.07q0-11.6,6.07-18.16a19.92,19.92,0,0,1,15.32-6.57q10.41,0,16.43,6.88T640.67,101H609.75c.1,3.66,1.08,6.5,3,8.53a9.34,9.34,0,0,0,7.12,3.06,7.57,7.57,0,0,0,4.87-1.58,9.72,9.72,0,0,0,3-5.09Zm.71-12.48c-.1-3.58-1-6.29-2.76-8.15a8.89,8.89,0,0,0-13.09.17,11.36,11.36,0,0,0-2.59,8ZM689,120.75H677.56v-6.84a18.63,18.63,0,0,1-6.75,6A17.3,17.3,0,0,1,663,121.8a17.75,17.75,0,0,1-13.77-6.47q-5.72-6.48-5.73-18.06,0-11.88,5.58-18a18.21,18.21,0,0,1,14.1-6.18q7.82,0,13.52,6.51V56.38H689v64.37ZM656.08,96.43q0,7.45,2.07,10.8a9.3,9.3,0,0,0,8.33,4.83,9.1,9.1,0,0,0,7.26-3.63c2-2.41,3-6,3-10.82,0-5.35-1-9.22-2.89-11.57a9.52,9.52,0,0,0-14.78,0Q656.08,89.48,656.08,96.43Zm65.68,24.32V56.38h20.85c7.9,0,13.06.33,15.45,1a16.82,16.82,0,0,1,9.28,6.3c2.49,3.23,3.74,7.42,3.74,12.53a20.94,20.94,0,0,1-2.16,10,17.69,17.69,0,0,1-5.47,6.35,18.81,18.81,0,0,1-6.74,3,73.43,73.43,0,0,1-13.48.93h-8.47v24.28Zm13-53.48V85.53h7.1q7.7,0,10.28-1a8.43,8.43,0,0,0,5.53-8.17,8.32,8.32,0,0,0-2.06-5.8,8.93,8.93,0,0,0-5.22-2.85,61.58,61.58,0,0,0-9.35-.44ZM789,120.75H776.64V74.12H788.1v6.63c2-3.13,3.73-5.2,5.29-6.19a9.78,9.78,0,0,1,5.33-1.5,15.61,15.61,0,0,1,8.13,2.34L803,86.15a10.81,10.81,0,0,0-5.79-2,6.77,6.77,0,0,0-4.39,1.42c-1.22.94-2.15,2.67-2.83,5.16s-1,7.7-1,15.63Zm45.7-14.83,12.3,2a20.18,20.18,0,0,1-7.49,10.3c-3.4,2.36-7.68,3.53-12.8,3.53-8.11,0-14.11-2.63-18-7.94-3.07-4.24-4.61-9.61-4.61-16.07q0-11.6,6.07-18.16a19.92,19.92,0,0,1,15.32-6.57q10.41,0,16.43,6.88T847.64,101H816.72q.13,5.49,3,8.53a9.35,9.35,0,0,0,7.12,3.06,7.55,7.55,0,0,0,4.87-1.58A9.72,9.72,0,0,0,834.68,105.92Zm.7-12.48c-.09-3.58-1-6.29-2.76-8.15a8.88,8.88,0,0,0-13.08.17c-1.76,2-2.62,4.61-2.6,8Zm13.49,14,12.38-1.88a9,9,0,0,0,3.2,5.47,10.85,10.85,0,0,0,6.76,1.87c3.2,0,5.6-.58,7.2-1.77a3.89,3.89,0,0,0,1.63-3.28,3.3,3.3,0,0,0-.88-2.34,10,10,0,0,0-4.13-1.62q-14.92-3.28-18.92-6a12,12,0,0,1-5.54-10.51,12.87,12.87,0,0,1,4.79-10.17q4.78-4.14,14.84-4.14c6.38,0,11.13,1,14.24,3.12a15.86,15.86,0,0,1,6.39,9.23L879.2,87.55a7.13,7.13,0,0,0-2.83-4.16,10.24,10.24,0,0,0-6-1.46c-3.25,0-5.58.45-7,1.37a2.91,2.91,0,0,0-1.4,2.5A2.72,2.72,0,0,0,863.27,88q1.66,1.23,11.52,3.47T888.56,97a11.43,11.43,0,0,1,3.86,9.17,14.08,14.08,0,0,1-5.36,11c-3.57,3.08-8.85,4.6-15.85,4.6q-9.53,0-15.09-3.86a17.72,17.72,0,0,1-7.25-10.5"></path></g></g></svg>