<svg xmlns="http://www.w3.org/2000/svg" viewBox="0 0 470.8 64.1"><defs><style>.cls-1{fill:#fff;}</style></defs><g id="Layer_2" data-name="Layer 2"><g id="Layer_1-2" data-name="Layer 1"><polygon class="cls-1" points="67.7 63.8 112.9 63.8 112.9 51.9 81.4 51.9 81.4 37.3 107.5 37.3 107.5 25.4 81.4 25.4 81.4 11.9 113.1 11.9 113.1 0 67.7 0 67.7 63.8"></polygon><polygon class="cls-1" points="167.3 40.2 137.7 0 117.3 0 123.7 8.1 123.7 64.1 137.3 64.1 137.3 22.1 167.9 63.8 181 63.8 181 0 167.3 0 167.3 40.2"></polygon><path class="cls-1" d="M47.1,31c6-1.1,11-6.7,11-14.6C58.1,7.9,51.9,0,39.6,0H0L6.2,7.9v56H41c12.3,0,18.7-7.7,18.7-17.3C59.4,38.7,54,31.9,47.1,31ZM19.8,12H36.9c4.6,0,7.5,2.7,7.5,6.7s-2.9,6.7-7.5,6.7H19.8ZM37.5,52H19.8V37.3H37.5c5.2,0,8.1,3.3,8.1,7.3,0,4.6-3.1,7.3-8.1,7.4Z"></path><path class="cls-1" d="M380.8,40.2h7.1v7.5a21.5,21.5,0,0,1-13.1,4.8c-11.4,0-19.4-8.7-19.4-20.4s8.1-20.4,19.4-20.4a17.42,17.42,0,0,1,14.6,8.1l10.8-6C395.6,6.5,387.5,0,374.7,0c-18.1,0-33.1,12.5-33.1,31.9s14.8,31.9,33.1,31.9a34.13,34.13,0,0,0,26.1-11.5V28.7H371.6Z"></path><polygon class="cls-1" points="319.3 40.2 289.6 0 269.3 0 275.6 8.1 275.6 64.1 289.3 64.1 289.3 22.1 319.9 63.8 332.9 63.8 332.9 0 319.3 0 319.3 40.2"></polygon><path class="cls-1" d="M446,0H419.7L426,8.1l-1.1,3.1L404.5,64.1h15.4l4-10.8h27.5l4,10.8h15.4ZM427.4,41.2l10-27.5,10,27.5Z"></path><rect class="cls-1" x="247.7" width="13.7" height="64.1"></rect><polygon class="cls-1" points="236.8 11 236.8 0 188.7 0 188.7 11.9 218.9 11.9 188.7 52.9 188.7 63.8 237.3 63.8 237.3 51.9 206.4 51.9 236.8 11"></polygon></g></g></svg>