<svg xmlns="http://www.w3.org/2000/svg" viewBox="0 0 418.18 64.74"><defs><style>.cls-1{fill:#fff;}</style></defs><g id="Layer_2" data-name="Layer 2"><g id="Layer_1-2" data-name="Layer 1"><path id="path45953" class="cls-1" d="M14.34,63.18H0V30.26L14.34,53.13Z"></path><path id="path45955" class="cls-1" d="M14.34,46.61,0,23.35V1.58H16.8L41.69,41.94V1.58H55.76v61.6H39.3l-25-40.36Z"></path><path id="path45957" class="cls-1" d="M60.54,63.18V1.58H102V14.06H74.88V26h25.49V37.69H74.88v13h28.68V63.18Z"></path><path id="path45959" class="cls-1" d="M120.35,63.18,104.59,1.58h14.17L128,38.43l8-36.85h16.46l9.17,36.85,8.36-36.85h14.34l-15.73,61.6H153.68l-9.16-39.83L135,63.18Z"></path><path id="path45961" class="cls-1" d="M190.53,46,180.84,56s7.5,8.79,23.11,8.79c14.45,0,23.49-8.21,23.49-20.41,0-20.73-28.73-15.45-28.73-26,0-3.14,2.72-6.15,8.46-6.15,6.12,0,11.29,5.25,11.29,5.25l9.26-9.83S220.68,0,207.64,0c-14.74,0-23.77,8.44-23.77,19.23,0,21.76,28.49,15.15,28.49,26.61,0,4.46-3.73,6.8-8.41,6.8-8.17,0-13.42-6.62-13.42-6.62Z"></path><path id="path45963" class="cls-1" d="M231.54,63.18V1.58h20.91l14.41,40,13.67-40h21.11v61.6H287.3V19.64L271.37,63.18H261l-15.6-44v44Z"></path><path id="path45965" class="cls-1" d="M327.42,1.58l-25.78,61.6h15.94L322.17,51h23.89l4.74,12.21h22.68l13-21.64L400,63.18h18.14L396,30.68l19.56-29.1H398.3L386.9,20.73,375.46,1.58H357.4l20,29.1L362.91,52.76,341.77,1.58Zm6.87,16.62,8,21.09H326.32Z"></path></g></g></svg>