<svg xmlns="http://www.w3.org/2000/svg" viewBox="0 0 419.49 102.75"><defs><style>.cls-1{fill:#fff;}.cls-2{fill:none;stroke:#fff;stroke-miterlimit:10;stroke-width:3.32px;}</style></defs><g id="Layer_2" data-name="Layer 2"><g id="Layer_1-2" data-name="Layer 1"><path class="cls-1" d="M238.09,102.56H205.54c-.3,0-.85-1.31-1-1.59-4.47-8.08-8.95-16.2-13.4-24.27-4.77,8.59-9.4,17.32-14.15,25.93-10.66,0-21.23-.06-31.8,0,1.19-2.24,2.47-4.43,3.75-6.63,8.89-15.36,17.65-30.92,26.55-46.3C166,33.14,156.41,16.74,146.89.25c0,0-.09-.11,0-.09h32.71c4,7.31,7.94,14.72,11.9,22.09,4.11-7.31,8.08-14.75,12.16-22.09h31.61a.51.51,0,0,1-.13.37C225.89,16.75,216.44,33,207.23,49.27,217.47,67.05,227.91,84.82,238.09,102.56Z"></path><path class="cls-1" d="M159.05,39.9a45.84,45.84,0,0,1,1.32,11,49.61,49.61,0,0,1-8.46,28.65c-.84,1.25-1.68,2.45-2.59,3.6a46.66,46.66,0,0,1-9.51,9,49.49,49.49,0,0,1-7.74,4.59A46.82,46.82,0,0,1,112,101.45a47.49,47.49,0,0,1-28.34-8.77A49.06,49.06,0,0,1,66.93,72.37a50.87,50.87,0,0,1-4.46-20.24,49.42,49.42,0,0,1,1.12-11.24,50.09,50.09,0,0,1,9.93-21A48.68,48.68,0,0,1,90.73,6.24a46.46,46.46,0,0,1,20-4.66h.07a44.22,44.22,0,0,1,11.22,1.15,47.94,47.94,0,0,1,9.24,3.13,49.06,49.06,0,0,1,20.15,16.93A49.65,49.65,0,0,1,159.05,39.9ZM120,73.82a20.53,20.53,0,0,0,.22-4.5V31.7a10.48,10.48,0,0,0-.65-4,8.83,8.83,0,0,0-1.87-2.84A8.48,8.48,0,0,0,111,22.1a7.68,7.68,0,0,0-3.57,1.19,8.73,8.73,0,0,0-3.9,5.46,20.35,20.35,0,0,0-.29,4.44V70.81a16.81,16.81,0,0,0,.06,2.28,8.35,8.35,0,0,0,2.32,4.75,8.16,8.16,0,0,0,6.81,2.47A8.48,8.48,0,0,0,120,73.82ZM63.79,28.09H29.21c-.14,4.3,0,9.05-.07,13.37,9.35.08,18.84,0,28.25,0v28c-9.48,0-19,0-28.45,0,0,11.11.06,22,.06,33.14,0,0,0,0,0,.06H.14c-.05,0-.05,0-.09,0C0,68.59,0,34.23,0,.09,0,.05,0,0,.06,0H61.83s.05,0,.06,0Q62.88,14,63.79,28.09Z"></path><path class="cls-1" d="M416.71,27.45A43.29,43.29,0,0,0,413,17.25a34.38,34.38,0,0,0-6.4-8.34A30.57,30.57,0,0,0,396,2.47Q389.61,0,379.57,0,358.71,0,348.5,11.32T338.3,51c0,3.5.14,6.87.42,10.09h-8.23V0H306.43L256.14,59.78v22.7h50.29v18.57h24.06V82.48H343V81.21A31.8,31.8,0,0,0,345.89,87a32.87,32.87,0,0,0,12.67,11.73q7.72,4,20.27,4,22.37,0,31.51-12.54t9.15-39.58A94.88,94.88,0,0,0,416.71,27.45ZM306.43,61.06H279.86L306.43,29.8Zm84.16,10.58Q389.12,78,386,81a10.19,10.19,0,0,1-7.28,2.94q-6.37,0-9.73-6.94T365.68,51q0-18.76,3.05-25.72t9.89-6.94q6.72,0,10.07,6.81T392,51.78Q392,65.27,390.59,71.64Z"></path><line class="cls-2" x1="246.4" x2="246.4" y2="102.75"></line></g></g></svg>